<?xml version="1.0" encoding="UTF-8"?>
<svg id="_圖層_2" xmlns="http://www.w3.org/2000/svg" version="1.1" viewBox="0 0 48 48">
  <!-- Generator: Adobe Illustrator 29.7.1, SVG Export Plug-In . SVG Version: 2.1.1 Build 8)  -->
  <defs>
    <style>
      .st0 {
        fill: none;
      }
    </style>
  </defs>
  <g id="_圖層_1-2">
    <g>
      <path d="M24,4c11,0,20,9,20,20s-9,20-20,20S4,35,4,24,13,4,24,4M24,3C12.4,3,3,12.4,3,24s9.4,21,21,21,21-9.4,21-21S35.6,3,24,3h0Z"/>
      <g>
        <g>
          <circle cx="16" cy="37.9" r="1"/>
          <circle cx="32" cy="10.1" r="1"/>
        </g>
        <g>
          <circle cx="10.1" cy="32" r="1"/>
          <circle cx="37.9" cy="16" r="1"/>
        </g>
        <g>
          <circle cx="8" cy="24" r="1"/>
          <circle cx="40" cy="24" r="1"/>
        </g>
        <g>
          <circle cx="10.1" cy="16" r="1"/>
          <circle cx="37.9" cy="32" r="1"/>
        </g>
        <g>
          <circle cx="16" cy="10.1" r="1"/>
          <circle cx="32" cy="37.9" r="1"/>
        </g>
        <g>
          <circle cx="24" cy="8" r="1"/>
          <circle cx="24" cy="40" r="1"/>
        </g>
      </g>
      <path d="M24,24c-.3,0-.5-.2-.5-.5v-12c0-.3.2-.5.5-.5s.5.2.5.5v12c0,.3-.2.5-.5.5Z"/>
      <path d="M29.6,27.5c0,0-.2,0-.2,0l-5.2-3c-.2-.1-.3-.4-.2-.7s.4-.3.7-.2l5.2,3c.2.1.3.4.2.7,0,.2-.3.2-.4.2Z"/>
      <rect class="st0" y="0" width="48" height="48"/>
      <circle cx="24" cy="24" r="2"/>
    </g>
  </g>
</svg>