<?xml version="1.0" encoding="UTF-8"?>
<svg id="_圖層_2" xmlns="http://www.w3.org/2000/svg" version="1.1" viewBox="0 0 48 48">
  <!-- Generator: Adobe Illustrator 29.7.1, SVG Export Plug-In . SVG Version: 2.1.1 Build 8)  -->
  <defs>
    <style>
      .st0 {
        fill: #231815;
      }

      .st1 {
        fill: none;
      }
    </style>
  </defs>
  <g id="_圖層_1-2">
    <g>
      <path class="st0" d="M24,4c11,0,20,9,20,20s-9,20-20,20S4,35,4,24,13,4,24,4M24,3C12.4,3,3,12.4,3,24s9.4,21,21,21,21-9.4,21-21S35.6,3,24,3h0Z"/>
      <g>
        <g>
          <circle class="st0" cx="16" cy="37.9" r="1"/>
          <circle class="st0" cx="32" cy="10.1" r="1"/>
        </g>
        <g>
          <circle class="st0" cx="10.1" cy="32" r="1"/>
          <circle class="st0" cx="37.9" cy="16" r="1"/>
        </g>
        <g>
          <circle class="st0" cx="8" cy="24" r="1"/>
          <circle class="st0" cx="40" cy="24" r="1"/>
        </g>
        <g>
          <circle class="st0" cx="10.1" cy="16" r="1"/>
          <circle class="st0" cx="37.9" cy="32" r="1"/>
        </g>
        <g>
          <circle class="st0" cx="16" cy="10.1" r="1"/>
          <circle class="st0" cx="32" cy="37.9" r="1"/>
        </g>
        <g>
          <circle class="st0" cx="24" cy="8" r="1"/>
          <circle class="st0" cx="24" cy="40" r="1"/>
        </g>
      </g>
      <path class="st0" d="M24,11.5c-.3,0-.5.2-.5.5v4h1v-4c0-.3-.2-.5-.5-.5Z"/>
      <rect class="st1" y="0" width="48" height="48"/>
      <path class="st0" d="M24,24.5c-.3,0-.5-.2-.5-.5v-6c0-.3.2-.5.5-.5s.5.2.5.5v6c0,.3-.2.5-.5.5Z"/>
      <circle class="st0" cx="24" cy="24" r="2"/>
    </g>
  </g>
</svg>